<?xml version="1.0"  ?>
<svg xmlns="http://www.w3.org/2000/svg" width="400" height="400">
    <path d="M58.552755 945.05674c-16.62525.13664-29.16344 4.36796-38.21992 12.03757-9.34866 7.91702-14.97921 19.48588-17.64199 33.9744v.0325l.0131.0435c8.86079 24.30879 20.43124 39.28389 33.34414 47.99829 12.91283 8.7146 27.15304 11.1558 41.30003 10.3987 14.14691-.7572 28.209925-4.703 40.788835-8.7379 12.55928-4.0286 23.65729-8.1426 31.86305-9.2914 8.20576 1.1488 19.3038 5.2628 31.86304 9.2914 13.27578 4.6886 25.93073 7.8578 40.78886 8.7379 12.58563.6735 25.67811-1.2329 40.42737-10.3988 14.74926-9.166 28.53184-32.5328 34.21679-47.99819l.0131-.0435v-.0325c-2.71402-12.39933-4.44033-19.47246-12.94966-29.33956-6.58371-7.54933-15.58122-12.72752-27.35424-15.1311-23.5314-4.80417-58.12558 1.45769-107.00526 21.86087-38.10404-15.90518-67.523965-23.22764-89.795785-23.40218-.009-.00008-.0176.00006-.0263 0-.54483-.005-1.08898-.005-1.62526 0zm16.04288 41.27943c19.03819.11805 31.687055 12.08737 47.040895 20.27613-28.244275 3.2064-66.540055 16.5701-72.874725-14.03481 9.94798-4.52037 18.38412-6.2875 25.83383-6.24132zm148.685405 0c7.44975-.0461 15.8728 1.72095 25.82074 6.24132-6.33465 30.60491-44.6304 17.24121-72.87473 14.03481 15.35386-8.18876 28.01585-20.15808 47.05399-20.27613z"
          transform="matrix(1.34072 0 0 1.38599 -.91681873 -1307.5241) translate(0,90)"/>
    <path d="M50,350L350,50" stroke-width="40" fill="none" stroke="black" stroke-linecap="round"></path>
</svg>
